<svg width="40" height="40" viewBox="0 0 40 40" fill="none" xmlns="http://www.w3.org/2000/svg"><path d="M35.8916 4.05844C34.4994 2.6636 32.7598 1.66622 30.8527 1.16957C29.6805 0.675129 26.2138 -0.0109778 19.9694 0.000133254C13.725 0.0112443 10.2473 0.708462 9.08618 1.2029C5.21209 2.23714 2.19023 5.2696 1.16957 9.14729C0.675129 10.3195 -0.0109778 13.8306 0.000133254 20.0333C0.0112443 26.2361 0.708462 29.7555 1.20568 30.9138C2.23787 34.7881 5.26978 37.8105 9.14729 38.8304C10.3195 39.3249 13.7139 40.011 20.0333 39.9999C26.3527 39.9888 29.7555 39.2943 30.9138 38.7971C34.7879 37.7629 37.8098 34.7304 38.8304 30.8527C39.3249 29.6805 40.011 26.1555 39.9999 19.9667C39.9888 13.7778 39.2943 10.2445 38.7971 9.08618C38.2933 7.18157 37.2902 5.44593 35.8916 4.05844V4.05844Z" fill="white"/></svg>